<?xml version="1.0" standalone="no"?>
<!DOCTYPE svg PUBLIC "-//W3C//DTD SVG 20010904//EN"
 "http://www.w3.org/TR/2001/REC-SVG-20010904/DTD/svg10.dtd">
<svg version="1.0" xmlns="http://www.w3.org/2000/svg"
 width="640.000000pt" height="640.000000pt" viewBox="0 0 640.000000 640.000000"
 preserveAspectRatio="xMidYMid meet">
<metadata>
Created by potrace 1.11, written by Peter Selinger 2001-2013
</metadata>
<g transform="translate(0.000000,640.000000) scale(0.100000,-0.100000)"
fill="#000000" stroke="none">
<path d="M3093 6381 c-28 -9 -66 -29 -85 -43 -18 -14 -689 -681 -1490 -1483
-1634 -1634 -1513 -1501 -1513 -1656 1 -154 -121 -21 1526 -1668 1647 -1647
1514 -1525 1668 -1526 155 0 21 -123 1670 1526 1648 1648 1526 1515 1526 1669
-1 155 122 21 -1526 1669 -1245 1244 -1479 1474 -1525 1497 -71 35 -175 41
-251 15z"/>
</g>
</svg>
